<?xml version="1.0" encoding="utf-8"?>
<!-- Generator: Adobe Illustrator 19.1.0, SVG Export Plug-In . SVG Version: 6.00 Build 0)  -->
<svg version="1.1" id="Layer_1" xmlns="http://www.w3.org/2000/svg" xmlns:xlink="http://www.w3.org/1999/xlink" x="0px" y="0px"
	 viewBox="0 351.7 374.3 53.5" style="enable-background:new 0 351.7 374.3 53.5;" xml:space="preserve">
<style type="text/css">
	.st0{fill:#FFFFFF;}
</style>
<path class="st0" d="M369,365.1v-13.4h-5.4c0,0,0,4-6.7,9.4c-5.2,4.2-14.7,4-14.7,4v8h5.4l-0.1,32.1H369v-32.1h5.4v-8H369z"/>
<path class="st0" d="M315.5,365.1c-14,0-24.1,8-24.1,20.1c0,13.4,10,20.1,24.1,20.1c14,0,24.1-6.7,24.1-20.1
	C339.5,373.1,329.5,365.1,315.5,365.1 M318.1,397.2c0,0,0,1.3-2.7,1.3c-2.7,0-2.7-1.3-2.7-1.3v-24.1c0,0,0-1.3,2.7-1.3
	c2.7,0,2.7,1.3,2.7,1.3V397.2z"/>
<path class="st0" d="M261.9,365.1c0,0-29.4-4-29.4,20.1c0,20.8,24.1,20.1,24.1,20.1h4l25.4,0v-53.5h-24.1V365.1z M261.9,397.2h-2.7
	c-1.3,0-5.4-4-5.4-13.4c0-10.7,2.7-10.7,2.7-10.7h5.4V397.2z"/>
<path class="st0" d="M37.1,363.8c0-1.3,2.7-1.3,2.7-1.3h5.4v-5.4c0,0-8-5.4-14.7-5.4c-20.1,0-20.1,9.1-20.1,13.4
	c0,4,2.3,7.2,4.9,12.8c3.3,7.1,6.8,12.2,4.5,15.3c-1.3,1.3-4,1.3-4,1.3h-5.4v8c0,0,2,0.9,4,1.3c6.7,1.3,12,1.3,14.7,1.3
	c8,0,18.7-2.7,18.7-13.4c0-6.7-10.4-21.9-10.7-26.8V363.8z"/>
<rect x="53.2" y="351.7" class="st0" width="24.1" height="53.5"/>
<path class="st0" d="M126.8,369.1c-4.8-2.9-12-4-16.1-4c-12,0-18.6,2.4-21,3.7c-0.5,0.3-0.8,1.7-0.8,3c0,1.3,0.4,2.7,0.4,2.7
	s4-1.3,16.1-1.3c0,0,1.3,0,1.3,2.7c0,2.7-1.3,2.7-1.3,2.7l-4,0c-4,0-9.2,0.4-11.8,1.7c-4.3,2.3-7,5-7,11.6c0,9.4,8,13.4,8,13.4h42.8
	v-29.4C133.5,375.8,133.5,373.1,126.8,369.1 M106.7,399.9H104c-1.3,0-2.7-2.7-2.7-8c0-8,2.7-8,2.7-8h2.7V399.9z"/>
<path class="st0" d="M162.9,374.1c0-1,2-1,2-1c1.7,0,3.3,0,3.3,0v-5.4c0,0-7.4-2.7-13.4-2.7c-15.1,0-16.1,6.2-16.1,9.4
	c0,3,2.1,6.5,4,10.7c2.5,5.3,5.8,9.7,4,12c-1.3,1.3-3.7,1.3-3.7,1.3h-4.3v5.4c0,0,4,1.3,10.7,1.3h4.3c5,0,17.1-2,17.1-10
	c0-5-7.8-16.4-8-20.1V374.1z"/>
<path class="st0" d="M213.7,363.8c-8,0-13.4,2.7-13.4,2.7v-14.7h-24.1v53.5h24.1v-32.1c0,0,0-1.3,2.7-1.3c2.7,0,2.7,1.3,2.7,1.3
	v32.1h21.4v-33.5C227.1,371.8,227.1,363.8,213.7,363.8"/>
</svg>
